<mxfile host="Electron" modified="2023-04-11T12:59:03.629Z" agent="Mozilla/5.0 (Windows NT 10.0; Win64; x64) AppleWebKit/537.36 (KHTML, like Gecko) draw.io/21.1.2 Chrome/106.0.5249.199 Electron/21.4.3 Safari/537.36" etag="PDKDmDIpKDbrMgOnZCNl" version="21.1.2" type="device" pages="12">
  <diagram name="1.3 事情" id="CpMYe5FQRm6xeQbsLVcK">
    <mxGraphModel dx="2894" dy="1174" grid="1" gridSize="10" guides="1" tooltips="1" connect="1" arrows="1" fold="1" page="1" pageScale="1" pageWidth="850" pageHeight="1100" math="0" shadow="0">
      <root>
        <mxCell id="0" />
        <mxCell id="1" parent="0" />
        <mxCell id="64dSfb-K3gRe8EuzYyzH-35" value="" style="verticalLabelPosition=bottom;verticalAlign=top;html=1;shape=card;whiteSpace=wrap;size=20;arcSize=12;strokeColor=#666666;fontColor=#333333;fillColor=#f5f5f5;" parent="1" vertex="1">
          <mxGeometry x="120" y="555" width="760" height="375" as="geometry" />
        </mxCell>
        <mxCell id="64dSfb-K3gRe8EuzYyzH-33" value="" style="verticalLabelPosition=bottom;verticalAlign=top;html=1;shape=card;whiteSpace=wrap;size=20;arcSize=12;strokeColor=#666666;fontColor=#333333;fillColor=#f5f5f5;" parent="1" vertex="1">
          <mxGeometry x="120" y="80" width="760" height="465" as="geometry" />
        </mxCell>
        <mxCell id="64dSfb-K3gRe8EuzYyzH-11" value="开发代码（软件整合之前）" style="rounded=1;whiteSpace=wrap;html=1;strokeColor=#457B9D;fontColor=#1D3557;fillColor=#A8DADC;labelBackgroundColor=none;" parent="1" vertex="1">
          <mxGeometry x="200" y="285" width="315" height="60" as="geometry" />
        </mxCell>
        <mxCell id="64dSfb-K3gRe8EuzYyzH-14" value="软件（软件发布前或发布后）" style="rounded=1;whiteSpace=wrap;html=1;strokeColor=#457B9D;fontColor=#1D3557;fillColor=#A8DADC;labelBackgroundColor=none;" parent="1" vertex="1">
          <mxGeometry x="200" y="375" width="315" height="60" as="geometry" />
        </mxCell>
        <mxCell id="64dSfb-K3gRe8EuzYyzH-16" value="软件（已发布）" style="rounded=1;whiteSpace=wrap;html=1;strokeColor=#457B9D;fontColor=#1D3557;fillColor=#A8DADC;labelBackgroundColor=none;" parent="1" vertex="1">
          <mxGeometry x="200" y="465" width="315" height="60" as="geometry" />
        </mxCell>
        <mxCell id="64dSfb-K3gRe8EuzYyzH-18" value="目标环境" style="rounded=1;whiteSpace=wrap;html=1;strokeColor=#457B9D;fontColor=#1D3557;fillColor=#A8DADC;labelBackgroundColor=none;" parent="1" vertex="1">
          <mxGeometry x="200" y="575" width="315" height="60" as="geometry" />
        </mxCell>
        <mxCell id="64dSfb-K3gRe8EuzYyzH-20" value="生产环境" style="rounded=1;whiteSpace=wrap;html=1;strokeColor=#457B9D;fontColor=#1D3557;fillColor=#A8DADC;labelBackgroundColor=none;" parent="1" vertex="1">
          <mxGeometry x="200" y="665" width="315" height="60" as="geometry" />
        </mxCell>
        <mxCell id="64dSfb-K3gRe8EuzYyzH-22" value="生产环境中运行的软件" style="rounded=1;whiteSpace=wrap;html=1;strokeColor=#457B9D;fontColor=#1D3557;fillColor=#A8DADC;labelBackgroundColor=none;" parent="1" vertex="1">
          <mxGeometry x="200" y="755" width="315" height="60" as="geometry" />
        </mxCell>
        <mxCell id="64dSfb-K3gRe8EuzYyzH-24" value="特定问题" style="rounded=1;whiteSpace=wrap;html=1;strokeColor=#457B9D;fontColor=#1D3557;fillColor=#A8DADC;labelBackgroundColor=none;" parent="1" vertex="1">
          <mxGeometry x="200" y="845" width="315" height="60" as="geometry" />
        </mxCell>
        <mxCell id="64dSfb-K3gRe8EuzYyzH-9" value="硬件原型" style="rounded=1;whiteSpace=wrap;html=1;strokeColor=#457B9D;fontColor=#1D3557;fillColor=#A8DADC;labelBackgroundColor=none;" parent="1" vertex="1">
          <mxGeometry x="395" y="195" width="120" height="60" as="geometry" />
        </mxCell>
        <mxCell id="64dSfb-K3gRe8EuzYyzH-1" value="性能目标" style="rounded=1;whiteSpace=wrap;html=1;strokeColor=#457B9D;fontColor=#1D3557;fillColor=#A8DADC;labelBackgroundColor=none;" parent="1" vertex="1">
          <mxGeometry x="200" y="105" width="120" height="60" as="geometry" />
        </mxCell>
        <mxCell id="64dSfb-K3gRe8EuzYyzH-2" value="性能模型" style="rounded=1;whiteSpace=wrap;html=1;strokeColor=#457B9D;fontColor=#1D3557;fillColor=#A8DADC;labelBackgroundColor=none;" parent="1" vertex="1">
          <mxGeometry x="395" y="105" width="120" height="60" as="geometry" />
        </mxCell>
        <mxCell id="64dSfb-K3gRe8EuzYyzH-3" value="软件原型" style="rounded=1;whiteSpace=wrap;html=1;strokeColor=#457B9D;fontColor=#1D3557;fillColor=#A8DADC;labelBackgroundColor=none;" parent="1" vertex="1">
          <mxGeometry x="200" y="195" width="120" height="60" as="geometry" />
        </mxCell>
        <mxCell id="64dSfb-K3gRe8EuzYyzH-4" value="性能特征归纳" style="ellipse;whiteSpace=wrap;html=1;aspect=fixed;strokeColor=#457B9D;fontColor=#1D3557;fillColor=#A8DADC;labelBackgroundColor=none;" parent="1" vertex="1">
          <mxGeometry x="140" y="185" width="80" height="80" as="geometry" />
        </mxCell>
        <mxCell id="64dSfb-K3gRe8EuzYyzH-5" value="性能特征归纳" style="ellipse;whiteSpace=wrap;html=1;aspect=fixed;strokeColor=#457B9D;fontColor=#1D3557;fillColor=#A8DADC;labelBackgroundColor=none;" parent="1" vertex="1">
          <mxGeometry x="335" y="185" width="80" height="80" as="geometry" />
        </mxCell>
        <mxCell id="64dSfb-K3gRe8EuzYyzH-7" value="设置" style="ellipse;whiteSpace=wrap;html=1;aspect=fixed;strokeColor=#457B9D;fontColor=#1D3557;fillColor=#A8DADC;labelBackgroundColor=none;" parent="1" vertex="1">
          <mxGeometry x="140" y="95" width="80" height="80" as="geometry" />
        </mxCell>
        <mxCell id="64dSfb-K3gRe8EuzYyzH-8" value="建立" style="ellipse;whiteSpace=wrap;html=1;aspect=fixed;strokeColor=#457B9D;fontColor=#1D3557;fillColor=#A8DADC;labelBackgroundColor=none;" parent="1" vertex="1">
          <mxGeometry x="335" y="95" width="80" height="80" as="geometry" />
        </mxCell>
        <mxCell id="64dSfb-K3gRe8EuzYyzH-12" value="性能分析" style="ellipse;whiteSpace=wrap;html=1;aspect=fixed;strokeColor=#457B9D;fontColor=#1D3557;fillColor=#A8DADC;labelBackgroundColor=none;" parent="1" vertex="1">
          <mxGeometry x="140" y="275" width="80" height="80" as="geometry" />
        </mxCell>
        <mxCell id="64dSfb-K3gRe8EuzYyzH-15" value="非回归性测试" style="ellipse;whiteSpace=wrap;html=1;aspect=fixed;strokeColor=#457B9D;fontColor=#1D3557;fillColor=#A8DADC;labelBackgroundColor=none;" parent="1" vertex="1">
          <mxGeometry x="140" y="365" width="80" height="80" as="geometry" />
        </mxCell>
        <mxCell id="64dSfb-K3gRe8EuzYyzH-17" value="基准测试" style="ellipse;whiteSpace=wrap;html=1;aspect=fixed;strokeColor=#457B9D;fontColor=#1D3557;fillColor=#A8DADC;labelBackgroundColor=none;" parent="1" vertex="1">
          <mxGeometry x="140" y="455" width="80" height="80" as="geometry" />
        </mxCell>
        <mxCell id="64dSfb-K3gRe8EuzYyzH-19" value="概念验证测试" style="ellipse;whiteSpace=wrap;html=1;aspect=fixed;strokeColor=#457B9D;fontColor=#1D3557;fillColor=#A8DADC;labelBackgroundColor=none;" parent="1" vertex="1">
          <mxGeometry x="140" y="565" width="80" height="80" as="geometry" />
        </mxCell>
        <mxCell id="64dSfb-K3gRe8EuzYyzH-21" value="配置优化" style="ellipse;whiteSpace=wrap;html=1;aspect=fixed;strokeColor=#457B9D;fontColor=#1D3557;fillColor=#A8DADC;labelBackgroundColor=none;" parent="1" vertex="1">
          <mxGeometry x="140" y="655" width="80" height="80" as="geometry" />
        </mxCell>
        <mxCell id="64dSfb-K3gRe8EuzYyzH-23" value="监控" style="ellipse;whiteSpace=wrap;html=1;aspect=fixed;strokeColor=#457B9D;fontColor=#1D3557;fillColor=#A8DADC;labelBackgroundColor=none;" parent="1" vertex="1">
          <mxGeometry x="140" y="745" width="80" height="80" as="geometry" />
        </mxCell>
        <mxCell id="64dSfb-K3gRe8EuzYyzH-25" value="性能分析" style="ellipse;whiteSpace=wrap;html=1;aspect=fixed;strokeColor=#457B9D;fontColor=#1D3557;fillColor=#A8DADC;labelBackgroundColor=none;" parent="1" vertex="1">
          <mxGeometry x="140" y="835" width="80" height="80" as="geometry" />
        </mxCell>
        <mxCell id="64dSfb-K3gRe8EuzYyzH-29" value="" style="edgeStyle=orthogonalEdgeStyle;rounded=0;orthogonalLoop=1;jettySize=auto;html=1;strokeColor=#457B9D;fontColor=#1D3557;fillColor=#A8DADC;" parent="1" source="64dSfb-K3gRe8EuzYyzH-27" target="64dSfb-K3gRe8EuzYyzH-28" edge="1">
          <mxGeometry relative="1" as="geometry" />
        </mxCell>
        <mxCell id="64dSfb-K3gRe8EuzYyzH-27" value="" style="shape=curlyBracket;whiteSpace=wrap;html=1;rounded=1;flipH=1;labelPosition=right;verticalLabelPosition=middle;align=left;verticalAlign=middle;strokeColor=#457B9D;fontColor=#1D3557;fillColor=#A8DADC;" parent="1" vertex="1">
          <mxGeometry x="530" y="95" width="20" height="440" as="geometry" />
        </mxCell>
        <mxCell id="64dSfb-K3gRe8EuzYyzH-28" value="传统软件开发过程一部分" style="whiteSpace=wrap;html=1;align=left;fillColor=#A8DADC;strokeColor=#457B9D;fontColor=#1D3557;rounded=1;" parent="1" vertex="1">
          <mxGeometry x="580" y="285" width="140" height="60" as="geometry" />
        </mxCell>
        <mxCell id="64dSfb-K3gRe8EuzYyzH-32" value="" style="edgeStyle=orthogonalEdgeStyle;rounded=0;orthogonalLoop=1;jettySize=auto;html=1;strokeColor=#457B9D;fontColor=#1D3557;fillColor=#A8DADC;" parent="1" source="64dSfb-K3gRe8EuzYyzH-30" target="64dSfb-K3gRe8EuzYyzH-31" edge="1">
          <mxGeometry relative="1" as="geometry" />
        </mxCell>
        <mxCell id="64dSfb-K3gRe8EuzYyzH-30" value="" style="shape=curlyBracket;whiteSpace=wrap;html=1;rounded=1;flipH=1;labelPosition=right;verticalLabelPosition=middle;align=left;verticalAlign=middle;strokeColor=#457B9D;fontColor=#1D3557;fillColor=#A8DADC;" parent="1" vertex="1">
          <mxGeometry x="530" y="565" width="20" height="350" as="geometry" />
        </mxCell>
        <mxCell id="64dSfb-K3gRe8EuzYyzH-31" value="部署在客户环境" style="whiteSpace=wrap;html=1;align=left;fillColor=#A8DADC;strokeColor=#457B9D;fontColor=#1D3557;rounded=1;" parent="1" vertex="1">
          <mxGeometry x="580" y="710" width="150" height="60" as="geometry" />
        </mxCell>
        <mxCell id="64dSfb-K3gRe8EuzYyzH-34" value="研究 “软件”的资源使用情况，确认原有设计与目标的偏差" style="shape=partialRectangle;whiteSpace=wrap;html=1;left=0;right=0;fillColor=none;strokeColor=#457B9D;fontColor=#1D3557;" parent="1" vertex="1">
          <mxGeometry x="760" y="285" width="120" height="60" as="geometry" />
        </mxCell>
        <mxCell id="64dSfb-K3gRe8EuzYyzH-36" value="监控“资源”的使用情况，可以预测问题的出现" style="shape=partialRectangle;whiteSpace=wrap;html=1;left=0;right=0;fillColor=none;strokeColor=#457B9D;fontColor=#1D3557;" parent="1" vertex="1">
          <mxGeometry x="760" y="710" width="120" height="60" as="geometry" />
        </mxCell>
        <mxCell id="64dSfb-K3gRe8EuzYyzH-41" value="" style="edgeStyle=orthogonalEdgeStyle;rounded=0;orthogonalLoop=1;jettySize=auto;html=1;strokeColor=#457B9D;fontColor=#1D3557;fillColor=#A8DADC;" parent="1" source="64dSfb-K3gRe8EuzYyzH-37" target="64dSfb-K3gRe8EuzYyzH-40" edge="1">
          <mxGeometry relative="1" as="geometry" />
        </mxCell>
        <mxCell id="64dSfb-K3gRe8EuzYyzH-37" value="" style="shape=curlyBracket;whiteSpace=wrap;html=1;rounded=1;labelPosition=left;verticalLabelPosition=middle;align=right;verticalAlign=middle;strokeColor=#457B9D;fontColor=#1D3557;fillColor=#A8DADC;" parent="1" vertex="1">
          <mxGeometry x="80" y="80" width="20" height="850" as="geometry" />
        </mxCell>
        <mxCell id="64dSfb-K3gRe8EuzYyzH-40" value="性能领域的事情" style="whiteSpace=wrap;html=1;align=right;fillColor=#A8DADC;strokeColor=#457B9D;fontColor=#1D3557;rounded=1;" parent="1" vertex="1">
          <mxGeometry x="-40" y="475" width="90" height="60" as="geometry" />
        </mxCell>
      </root>
    </mxGraphModel>
  </diagram>
  <diagram id="Ev95BMShyrCWPgz9o-53" name="1.4 视角">
    <mxGraphModel dx="2954" dy="1129" grid="1" gridSize="10" guides="1" tooltips="1" connect="1" arrows="1" fold="1" page="1" pageScale="1" pageWidth="850" pageHeight="1100" math="0" shadow="0">
      <root>
        <mxCell id="0" />
        <mxCell id="1" parent="0" />
        <mxCell id="vxHStTJArSNDO-l0W5ec-1" value="" style="rounded=0;whiteSpace=wrap;html=1;dashed=1;" parent="1" vertex="1">
          <mxGeometry x="260" y="310" width="320" height="290" as="geometry" />
        </mxCell>
        <mxCell id="vxHStTJArSNDO-l0W5ec-2" value="操作系统软件栈" style="text;html=1;strokeColor=none;fillColor=none;align=center;verticalAlign=middle;whiteSpace=wrap;rounded=0;" parent="1" vertex="1">
          <mxGeometry x="260" y="310" width="20" height="290" as="geometry" />
        </mxCell>
        <mxCell id="vxHStTJArSNDO-l0W5ec-5" value="" style="edgeStyle=orthogonalEdgeStyle;rounded=0;orthogonalLoop=1;jettySize=auto;html=1;exitX=0.75;exitY=1;exitDx=0;exitDy=0;" parent="1" source="vxHStTJArSNDO-l0W5ec-3" target="vxHStTJArSNDO-l0W5ec-4" edge="1">
          <mxGeometry relative="1" as="geometry" />
        </mxCell>
        <mxCell id="vxHStTJArSNDO-l0W5ec-13" style="edgeStyle=orthogonalEdgeStyle;rounded=0;orthogonalLoop=1;jettySize=auto;html=1;entryX=0.25;entryY=0;entryDx=0;entryDy=0;exitX=0.25;exitY=1;exitDx=0;exitDy=0;" parent="1" source="vxHStTJArSNDO-l0W5ec-3" target="vxHStTJArSNDO-l0W5ec-6" edge="1">
          <mxGeometry relative="1" as="geometry" />
        </mxCell>
        <mxCell id="vxHStTJArSNDO-l0W5ec-3" value="Application" style="rounded=1;whiteSpace=wrap;html=1;" parent="1" vertex="1">
          <mxGeometry x="300" y="230" width="260" height="60" as="geometry" />
        </mxCell>
        <mxCell id="vxHStTJArSNDO-l0W5ec-7" value="" style="edgeStyle=orthogonalEdgeStyle;rounded=0;orthogonalLoop=1;jettySize=auto;html=1;entryX=0.75;entryY=0;entryDx=0;entryDy=0;" parent="1" source="vxHStTJArSNDO-l0W5ec-4" target="vxHStTJArSNDO-l0W5ec-6" edge="1">
          <mxGeometry relative="1" as="geometry" />
        </mxCell>
        <mxCell id="vxHStTJArSNDO-l0W5ec-4" value="系统库" style="rounded=1;whiteSpace=wrap;html=1;" parent="1" vertex="1">
          <mxGeometry x="430" y="330" width="130" height="60" as="geometry" />
        </mxCell>
        <mxCell id="vxHStTJArSNDO-l0W5ec-6" value="系统调用" style="rounded=1;whiteSpace=wrap;html=1;" parent="1" vertex="1">
          <mxGeometry x="300" y="420" width="260" height="60" as="geometry" />
        </mxCell>
        <mxCell id="vxHStTJArSNDO-l0W5ec-8" value="内核" style="rounded=1;whiteSpace=wrap;html=1;" parent="1" vertex="1">
          <mxGeometry x="300" y="510" width="260" height="60" as="geometry" />
        </mxCell>
        <mxCell id="vxHStTJArSNDO-l0W5ec-10" value="设备" style="rounded=1;whiteSpace=wrap;html=1;" parent="1" vertex="1">
          <mxGeometry x="300" y="610" width="260" height="60" as="geometry" />
        </mxCell>
        <mxCell id="vxHStTJArSNDO-l0W5ec-9" value="" style="edgeStyle=orthogonalEdgeStyle;rounded=0;orthogonalLoop=1;jettySize=auto;html=1;" parent="1" source="vxHStTJArSNDO-l0W5ec-6" target="vxHStTJArSNDO-l0W5ec-8" edge="1">
          <mxGeometry relative="1" as="geometry" />
        </mxCell>
        <mxCell id="vxHStTJArSNDO-l0W5ec-11" value="" style="edgeStyle=orthogonalEdgeStyle;rounded=0;orthogonalLoop=1;jettySize=auto;html=1;" parent="1" source="vxHStTJArSNDO-l0W5ec-8" target="vxHStTJArSNDO-l0W5ec-10" edge="1">
          <mxGeometry relative="1" as="geometry" />
        </mxCell>
        <mxCell id="vxHStTJArSNDO-l0W5ec-14" value="" style="endArrow=none;dashed=1;html=1;dashPattern=1 3;strokeWidth=2;rounded=0;" parent="1" edge="1">
          <mxGeometry width="50" height="50" relative="1" as="geometry">
            <mxPoint x="580" y="259.5" as="sourcePoint" />
            <mxPoint x="650" y="259.5" as="targetPoint" />
          </mxGeometry>
        </mxCell>
        <mxCell id="vxHStTJArSNDO-l0W5ec-15" value="工作负载" style="text;html=1;strokeColor=none;fillColor=none;align=center;verticalAlign=middle;whiteSpace=wrap;rounded=0;" parent="1" vertex="1">
          <mxGeometry x="660" y="245" width="60" height="30" as="geometry" />
        </mxCell>
        <mxCell id="vxHStTJArSNDO-l0W5ec-16" value="" style="endArrow=none;dashed=1;html=1;dashPattern=1 3;strokeWidth=2;rounded=0;" parent="1" edge="1">
          <mxGeometry width="50" height="50" relative="1" as="geometry">
            <mxPoint x="200" y="640" as="sourcePoint" />
            <mxPoint x="280" y="640" as="targetPoint" />
          </mxGeometry>
        </mxCell>
        <mxCell id="vxHStTJArSNDO-l0W5ec-17" value="资源负载" style="text;html=1;strokeColor=none;fillColor=none;align=center;verticalAlign=middle;whiteSpace=wrap;rounded=0;" parent="1" vertex="1">
          <mxGeometry x="120" y="625" width="60" height="30" as="geometry" />
        </mxCell>
        <mxCell id="vxHStTJArSNDO-l0W5ec-18" value="" style="endArrow=classic;html=1;rounded=0;" parent="1" edge="1">
          <mxGeometry width="50" height="50" relative="1" as="geometry">
            <mxPoint x="689.5" y="280" as="sourcePoint" />
            <mxPoint x="690" y="630" as="targetPoint" />
          </mxGeometry>
        </mxCell>
        <mxCell id="vxHStTJArSNDO-l0W5ec-19" value="" style="endArrow=classic;html=1;rounded=0;" parent="1" edge="1">
          <mxGeometry width="50" height="50" relative="1" as="geometry">
            <mxPoint x="160" y="610" as="sourcePoint" />
            <mxPoint x="160.5" y="270" as="targetPoint" />
          </mxGeometry>
        </mxCell>
        <mxCell id="vxHStTJArSNDO-l0W5ec-20" value="" style="endArrow=none;dashed=1;html=1;dashPattern=1 3;strokeWidth=2;rounded=0;" parent="1" edge="1">
          <mxGeometry width="50" height="50" relative="1" as="geometry">
            <mxPoint x="120" y="259.5" as="sourcePoint" />
            <mxPoint x="280" y="259.5" as="targetPoint" />
          </mxGeometry>
        </mxCell>
        <mxCell id="vxHStTJArSNDO-l0W5ec-21" value="" style="endArrow=none;dashed=1;html=1;dashPattern=1 3;strokeWidth=2;rounded=0;" parent="1" edge="1">
          <mxGeometry width="50" height="50" relative="1" as="geometry">
            <mxPoint x="580" y="639.5" as="sourcePoint" />
            <mxPoint x="720" y="640" as="targetPoint" />
          </mxGeometry>
        </mxCell>
      </root>
    </mxGraphModel>
  </diagram>
  <diagram id="hsEx1c6HwIKbTM5Tjlxx" name="1.6 延时">
    <mxGraphModel dx="645" dy="372" grid="1" gridSize="10" guides="1" tooltips="1" connect="1" arrows="1" fold="1" page="1" pageScale="1" pageWidth="850" pageHeight="1100" math="0" shadow="0">
      <root>
        <mxCell id="0" />
        <mxCell id="1" parent="0" />
      </root>
    </mxGraphModel>
  </diagram>
  <diagram id="hOgJg5eHrW7rp9mmDsAz" name="2.2.1 SUT">
    <mxGraphModel dx="861" dy="666" grid="1" gridSize="10" guides="1" tooltips="1" connect="1" arrows="1" fold="1" page="1" pageScale="1" pageWidth="850" pageHeight="1100" math="0" shadow="0">
      <root>
        <mxCell id="0" />
        <mxCell id="1" parent="0" />
        <mxCell id="raiw0eQXXoURdBZPbQ2M-3" value="" style="edgeStyle=orthogonalEdgeStyle;rounded=0;orthogonalLoop=1;jettySize=auto;html=1;" parent="1" source="raiw0eQXXoURdBZPbQ2M-1" edge="1">
          <mxGeometry relative="1" as="geometry">
            <mxPoint x="600" y="430" as="targetPoint" />
          </mxGeometry>
        </mxCell>
        <mxCell id="raiw0eQXXoURdBZPbQ2M-7" value="性能结果" style="edgeLabel;html=1;align=center;verticalAlign=middle;resizable=0;points=[];" parent="raiw0eQXXoURdBZPbQ2M-3" vertex="1" connectable="0">
          <mxGeometry x="-0.05" y="2" relative="1" as="geometry">
            <mxPoint y="1" as="offset" />
          </mxGeometry>
        </mxCell>
        <mxCell id="raiw0eQXXoURdBZPbQ2M-1" value="测试系统" style="rounded=1;whiteSpace=wrap;html=1;" parent="1" vertex="1">
          <mxGeometry x="320" y="400" width="120" height="60" as="geometry" />
        </mxCell>
        <mxCell id="raiw0eQXXoURdBZPbQ2M-5" value="" style="edgeStyle=orthogonalEdgeStyle;rounded=0;orthogonalLoop=1;jettySize=auto;html=1;" parent="1" target="raiw0eQXXoURdBZPbQ2M-1" edge="1">
          <mxGeometry relative="1" as="geometry">
            <mxPoint x="120" y="430" as="sourcePoint" />
          </mxGeometry>
        </mxCell>
        <mxCell id="raiw0eQXXoURdBZPbQ2M-6" value="输入&lt;br&gt;（工作负载）" style="edgeLabel;html=1;align=center;verticalAlign=middle;resizable=0;points=[];" parent="raiw0eQXXoURdBZPbQ2M-5" vertex="1" connectable="0">
          <mxGeometry x="-0.1" y="-3" relative="1" as="geometry">
            <mxPoint as="offset" />
          </mxGeometry>
        </mxCell>
        <mxCell id="raiw0eQXXoURdBZPbQ2M-8" value="" style="endArrow=classic;html=1;rounded=0;entryX=0.5;entryY=0;entryDx=0;entryDy=0;" parent="1" target="raiw0eQXXoURdBZPbQ2M-1" edge="1">
          <mxGeometry width="50" height="50" relative="1" as="geometry">
            <mxPoint x="380" y="300" as="sourcePoint" />
            <mxPoint x="390" y="220" as="targetPoint" />
          </mxGeometry>
        </mxCell>
        <mxCell id="raiw0eQXXoURdBZPbQ2M-9" value="扰动&lt;br&gt;定时执行的系统活动、系统的其他用户以及其他的工作负载" style="edgeLabel;html=1;align=center;verticalAlign=middle;resizable=0;points=[];" parent="raiw0eQXXoURdBZPbQ2M-8" vertex="1" connectable="0">
          <mxGeometry x="-0.19" y="1" relative="1" as="geometry">
            <mxPoint as="offset" />
          </mxGeometry>
        </mxCell>
      </root>
    </mxGraphModel>
  </diagram>
  <diagram id="w0lM8DJo_MW6y7KJD42U" name="2.2.2 排队系统">
    <mxGraphModel dx="861" dy="666" grid="1" gridSize="10" guides="1" tooltips="1" connect="1" arrows="1" fold="1" page="1" pageScale="1" pageWidth="850" pageHeight="1100" math="0" shadow="0">
      <root>
        <mxCell id="0" />
        <mxCell id="1" parent="0" />
        <mxCell id="b6b3RsDkDJ6iNtVivWSI-1" value="服务中心" style="rounded=1;whiteSpace=wrap;html=1;" parent="1" vertex="1">
          <mxGeometry x="460" y="320" width="120" height="80" as="geometry" />
        </mxCell>
        <mxCell id="b6b3RsDkDJ6iNtVivWSI-2" value="输入&lt;br&gt;（工作负载）" style="endArrow=classic;html=1;rounded=0;entryX=0;entryY=0;entryDx=0;entryDy=0;" parent="1" target="b6b3RsDkDJ6iNtVivWSI-1" edge="1">
          <mxGeometry x="-1" y="-30" width="50" height="50" relative="1" as="geometry">
            <mxPoint x="240" y="320" as="sourcePoint" />
            <mxPoint x="150" y="330" as="targetPoint" />
            <mxPoint x="-30" y="-30" as="offset" />
          </mxGeometry>
        </mxCell>
        <mxCell id="b6b3RsDkDJ6iNtVivWSI-3" value="" style="endArrow=classic;html=1;rounded=0;exitX=0;exitY=1;exitDx=0;exitDy=0;" parent="1" source="b6b3RsDkDJ6iNtVivWSI-1" edge="1">
          <mxGeometry width="50" height="50" relative="1" as="geometry">
            <mxPoint x="250" y="520" as="sourcePoint" />
            <mxPoint x="240" y="400" as="targetPoint" />
          </mxGeometry>
        </mxCell>
        <mxCell id="b6b3RsDkDJ6iNtVivWSI-10" value="输出" style="edgeLabel;html=1;align=center;verticalAlign=middle;resizable=0;points=[];" parent="b6b3RsDkDJ6iNtVivWSI-3" vertex="1" connectable="0">
          <mxGeometry x="0.8182" relative="1" as="geometry">
            <mxPoint x="-50" as="offset" />
          </mxGeometry>
        </mxCell>
        <mxCell id="b6b3RsDkDJ6iNtVivWSI-9" value="" style="group" parent="1" vertex="1" connectable="0">
          <mxGeometry x="295" y="290" width="70" height="20" as="geometry" />
        </mxCell>
        <mxCell id="b6b3RsDkDJ6iNtVivWSI-4" value="" style="rounded=0;whiteSpace=wrap;html=1;strokeColor=#000000;fillColor=#000000;" parent="b6b3RsDkDJ6iNtVivWSI-9" vertex="1">
          <mxGeometry width="10" height="20" as="geometry" />
        </mxCell>
        <mxCell id="b6b3RsDkDJ6iNtVivWSI-5" value="" style="rounded=0;whiteSpace=wrap;html=1;strokeColor=#000000;fillColor=#000000;" parent="b6b3RsDkDJ6iNtVivWSI-9" vertex="1">
          <mxGeometry x="15" width="10" height="20" as="geometry" />
        </mxCell>
        <mxCell id="b6b3RsDkDJ6iNtVivWSI-6" value="" style="rounded=0;whiteSpace=wrap;html=1;strokeColor=#000000;fillColor=#000000;" parent="b6b3RsDkDJ6iNtVivWSI-9" vertex="1">
          <mxGeometry x="30" width="10" height="20" as="geometry" />
        </mxCell>
        <mxCell id="b6b3RsDkDJ6iNtVivWSI-7" value="" style="rounded=0;whiteSpace=wrap;html=1;strokeColor=#000000;fillColor=#000000;" parent="b6b3RsDkDJ6iNtVivWSI-9" vertex="1">
          <mxGeometry x="45" width="10" height="20" as="geometry" />
        </mxCell>
        <mxCell id="b6b3RsDkDJ6iNtVivWSI-8" value="" style="rounded=0;whiteSpace=wrap;html=1;strokeColor=#000000;fillColor=#000000;" parent="b6b3RsDkDJ6iNtVivWSI-9" vertex="1">
          <mxGeometry x="60" width="10" height="20" as="geometry" />
        </mxCell>
        <mxCell id="b6b3RsDkDJ6iNtVivWSI-11" value="响应时间" style="endArrow=classic;startArrow=classic;html=1;rounded=0;" parent="1" edge="1">
          <mxGeometry width="50" height="50" relative="1" as="geometry">
            <mxPoint x="280" y="400" as="sourcePoint" />
            <mxPoint x="280" y="320" as="targetPoint" />
          </mxGeometry>
        </mxCell>
        <mxCell id="b6b3RsDkDJ6iNtVivWSI-12" value="队列" style="text;html=1;strokeColor=none;fillColor=none;align=center;verticalAlign=middle;whiteSpace=wrap;rounded=0;" parent="1" vertex="1">
          <mxGeometry x="340" y="270" width="60" height="20" as="geometry" />
        </mxCell>
        <mxCell id="b6b3RsDkDJ6iNtVivWSI-13" value="" style="group" parent="1" vertex="1" connectable="0">
          <mxGeometry x="370" y="290" width="70" height="20" as="geometry" />
        </mxCell>
        <mxCell id="b6b3RsDkDJ6iNtVivWSI-14" value="" style="rounded=0;whiteSpace=wrap;html=1;strokeColor=#000000;fillColor=#000000;" parent="b6b3RsDkDJ6iNtVivWSI-13" vertex="1">
          <mxGeometry width="9.999999999999998" height="20" as="geometry" />
        </mxCell>
        <mxCell id="b6b3RsDkDJ6iNtVivWSI-15" value="" style="rounded=0;whiteSpace=wrap;html=1;strokeColor=#000000;fillColor=#000000;" parent="b6b3RsDkDJ6iNtVivWSI-13" vertex="1">
          <mxGeometry x="15" width="9.999999999999998" height="20" as="geometry" />
        </mxCell>
        <mxCell id="b6b3RsDkDJ6iNtVivWSI-16" value="" style="rounded=0;whiteSpace=wrap;html=1;strokeColor=#000000;fillColor=#000000;" parent="b6b3RsDkDJ6iNtVivWSI-13" vertex="1">
          <mxGeometry x="30" width="9.999999999999998" height="20" as="geometry" />
        </mxCell>
        <mxCell id="b6b3RsDkDJ6iNtVivWSI-17" value="" style="rounded=0;whiteSpace=wrap;html=1;strokeColor=#000000;fillColor=#000000;" parent="b6b3RsDkDJ6iNtVivWSI-13" vertex="1">
          <mxGeometry x="44.99999999999999" width="9.999999999999998" height="20" as="geometry" />
        </mxCell>
        <mxCell id="b6b3RsDkDJ6iNtVivWSI-18" value="" style="rounded=0;whiteSpace=wrap;html=1;strokeColor=#000000;fillColor=#000000;" parent="b6b3RsDkDJ6iNtVivWSI-13" vertex="1">
          <mxGeometry x="60" width="9.999999999999998" height="20" as="geometry" />
        </mxCell>
      </root>
    </mxGraphModel>
  </diagram>
  <diagram id="lWmvDWy4ALlDRi4OA-Ld" name="2.3.1 延迟">
    <mxGraphModel dx="861" dy="666" grid="1" gridSize="10" guides="1" tooltips="1" connect="1" arrows="1" fold="1" page="1" pageScale="1" pageWidth="850" pageHeight="1100" math="0" shadow="0">
      <root>
        <mxCell id="0" />
        <mxCell id="1" parent="0" />
        <mxCell id="MZtK2q3n8P5d15qMYdxQ-1" value="" style="endArrow=classic;html=1;rounded=0;" parent="1" edge="1">
          <mxGeometry width="50" height="50" relative="1" as="geometry">
            <mxPoint x="200" y="360" as="sourcePoint" />
            <mxPoint x="440" y="360" as="targetPoint" />
          </mxGeometry>
        </mxCell>
        <mxCell id="MZtK2q3n8P5d15qMYdxQ-4" value="响应时间" style="edgeLabel;html=1;align=center;verticalAlign=middle;resizable=0;points=[];" parent="MZtK2q3n8P5d15qMYdxQ-1" vertex="1" connectable="0">
          <mxGeometry x="0.0167" y="-4" relative="1" as="geometry">
            <mxPoint y="-34" as="offset" />
          </mxGeometry>
        </mxCell>
        <mxCell id="MZtK2q3n8P5d15qMYdxQ-2" value="" style="endArrow=classic;html=1;rounded=0;" parent="1" edge="1">
          <mxGeometry width="50" height="50" relative="1" as="geometry">
            <mxPoint x="360" y="440" as="sourcePoint" />
            <mxPoint x="440" y="440" as="targetPoint" />
          </mxGeometry>
        </mxCell>
        <mxCell id="MZtK2q3n8P5d15qMYdxQ-9" value="数据传输时间" style="edgeLabel;html=1;align=center;verticalAlign=middle;resizable=0;points=[];" parent="MZtK2q3n8P5d15qMYdxQ-2" vertex="1" connectable="0">
          <mxGeometry x="0.175" y="-1" relative="1" as="geometry">
            <mxPoint x="-7" y="-21" as="offset" />
          </mxGeometry>
        </mxCell>
        <mxCell id="MZtK2q3n8P5d15qMYdxQ-3" value="" style="endArrow=none;html=1;rounded=0;" parent="1" edge="1">
          <mxGeometry width="50" height="50" relative="1" as="geometry">
            <mxPoint x="440" y="480" as="sourcePoint" />
            <mxPoint x="440" y="320" as="targetPoint" />
          </mxGeometry>
        </mxCell>
        <mxCell id="MZtK2q3n8P5d15qMYdxQ-11" value="完成" style="edgeLabel;html=1;align=center;verticalAlign=middle;resizable=0;points=[];" parent="MZtK2q3n8P5d15qMYdxQ-3" vertex="1" connectable="0">
          <mxGeometry x="0.075" y="-2" relative="1" as="geometry">
            <mxPoint x="18" as="offset" />
          </mxGeometry>
        </mxCell>
        <mxCell id="MZtK2q3n8P5d15qMYdxQ-5" value="" style="endArrow=none;html=1;rounded=0;" parent="1" edge="1">
          <mxGeometry width="50" height="50" relative="1" as="geometry">
            <mxPoint x="360" y="460" as="sourcePoint" />
            <mxPoint x="360" y="400" as="targetPoint" />
          </mxGeometry>
        </mxCell>
        <mxCell id="MZtK2q3n8P5d15qMYdxQ-6" value="" style="endArrow=classic;html=1;rounded=0;" parent="1" edge="1">
          <mxGeometry width="50" height="50" relative="1" as="geometry">
            <mxPoint x="200" y="420" as="sourcePoint" />
            <mxPoint x="360" y="420" as="targetPoint" />
          </mxGeometry>
        </mxCell>
        <mxCell id="MZtK2q3n8P5d15qMYdxQ-7" value="连接延时" style="edgeLabel;html=1;align=center;verticalAlign=middle;resizable=0;points=[];" parent="MZtK2q3n8P5d15qMYdxQ-6" vertex="1" connectable="0">
          <mxGeometry x="0.0167" y="-4" relative="1" as="geometry">
            <mxPoint y="-24" as="offset" />
          </mxGeometry>
        </mxCell>
        <mxCell id="MZtK2q3n8P5d15qMYdxQ-8" value="" style="endArrow=none;html=1;rounded=0;" parent="1" edge="1">
          <mxGeometry width="50" height="50" relative="1" as="geometry">
            <mxPoint x="200" y="480" as="sourcePoint" />
            <mxPoint x="200" y="320" as="targetPoint" />
          </mxGeometry>
        </mxCell>
        <mxCell id="MZtK2q3n8P5d15qMYdxQ-10" value="网络服务请求" style="edgeLabel;html=1;align=center;verticalAlign=middle;resizable=0;points=[];" parent="MZtK2q3n8P5d15qMYdxQ-8" vertex="1" connectable="0">
          <mxGeometry x="0.125" y="2" relative="1" as="geometry">
            <mxPoint x="-38" as="offset" />
          </mxGeometry>
        </mxCell>
      </root>
    </mxGraphModel>
  </diagram>
  <diagram id="1scKZKQVR669j-x9qwlS" name="2.3.7 负载 vs.架构">
    <mxGraphModel dx="2954" dy="1129" grid="1" gridSize="10" guides="1" tooltips="1" connect="1" arrows="1" fold="1" page="1" pageScale="1" pageWidth="850" pageHeight="1100" math="0" shadow="0">
      <root>
        <mxCell id="0" />
        <mxCell id="1" parent="0" />
        <mxCell id="58orMzEtlyYezD6x3xrO-2" value="" style="rounded=0;whiteSpace=wrap;html=1;" vertex="1" parent="1">
          <mxGeometry x="480" y="440" width="200" height="360" as="geometry" />
        </mxCell>
        <mxCell id="58orMzEtlyYezD6x3xrO-3" value="&lt;font style=&quot;font-size: 16px;&quot;&gt;架构&lt;/font&gt;" style="text;html=1;strokeColor=none;fillColor=none;align=center;verticalAlign=middle;whiteSpace=wrap;rounded=0;" vertex="1" parent="1">
          <mxGeometry x="550" y="400" width="60" height="30" as="geometry" />
        </mxCell>
        <mxCell id="58orMzEtlyYezD6x3xrO-6" value="" style="edgeStyle=orthogonalEdgeStyle;rounded=0;orthogonalLoop=1;jettySize=auto;html=1;endArrow=none;endFill=0;" edge="1" parent="1" source="58orMzEtlyYezD6x3xrO-4" target="58orMzEtlyYezD6x3xrO-5">
          <mxGeometry relative="1" as="geometry" />
        </mxCell>
        <mxCell id="58orMzEtlyYezD6x3xrO-4" value="应用程序" style="rounded=0;whiteSpace=wrap;html=1;" vertex="1" parent="1">
          <mxGeometry x="520" y="480" width="120" height="40" as="geometry" />
        </mxCell>
        <mxCell id="58orMzEtlyYezD6x3xrO-8" value="" style="edgeStyle=orthogonalEdgeStyle;rounded=0;orthogonalLoop=1;jettySize=auto;html=1;endArrow=none;endFill=0;" edge="1" parent="1" source="58orMzEtlyYezD6x3xrO-5" target="58orMzEtlyYezD6x3xrO-7">
          <mxGeometry relative="1" as="geometry" />
        </mxCell>
        <mxCell id="58orMzEtlyYezD6x3xrO-5" value="WEB服务器" style="rounded=0;whiteSpace=wrap;html=1;" vertex="1" parent="1">
          <mxGeometry x="520" y="560" width="120" height="40" as="geometry" />
        </mxCell>
        <mxCell id="58orMzEtlyYezD6x3xrO-10" value="" style="edgeStyle=orthogonalEdgeStyle;rounded=0;orthogonalLoop=1;jettySize=auto;html=1;endArrow=none;endFill=0;" edge="1" parent="1" source="58orMzEtlyYezD6x3xrO-7" target="58orMzEtlyYezD6x3xrO-9">
          <mxGeometry relative="1" as="geometry" />
        </mxCell>
        <mxCell id="58orMzEtlyYezD6x3xrO-7" value="数据库" style="rounded=0;whiteSpace=wrap;html=1;" vertex="1" parent="1">
          <mxGeometry x="520" y="640" width="120" height="40" as="geometry" />
        </mxCell>
        <mxCell id="58orMzEtlyYezD6x3xrO-9" value="操作系统" style="rounded=0;whiteSpace=wrap;html=1;" vertex="1" parent="1">
          <mxGeometry x="520" y="720" width="120" height="40" as="geometry" />
        </mxCell>
        <mxCell id="58orMzEtlyYezD6x3xrO-12" value="" style="endArrow=none;dashed=1;html=1;dashPattern=1 3;strokeWidth=2;rounded=0;" edge="1" parent="1">
          <mxGeometry width="50" height="50" relative="1" as="geometry">
            <mxPoint x="440" y="840" as="sourcePoint" />
            <mxPoint x="440" y="400" as="targetPoint" />
          </mxGeometry>
        </mxCell>
        <mxCell id="58orMzEtlyYezD6x3xrO-13" value="" style="shape=flexArrow;endArrow=classic;html=1;rounded=0;endWidth=48;endSize=12.33;width=50;" edge="1" parent="1">
          <mxGeometry width="50" height="50" relative="1" as="geometry">
            <mxPoint x="200" y="620" as="sourcePoint" />
            <mxPoint x="400" y="619.5" as="targetPoint" />
          </mxGeometry>
        </mxCell>
        <mxCell id="58orMzEtlyYezD6x3xrO-14" value="&lt;font style=&quot;font-size: 16px;&quot;&gt;工作负载&lt;/font&gt;" style="text;html=1;strokeColor=none;fillColor=none;align=center;verticalAlign=middle;whiteSpace=wrap;rounded=0;" vertex="1" parent="1">
          <mxGeometry x="240" y="560" width="80" height="30" as="geometry" />
        </mxCell>
      </root>
    </mxGraphModel>
  </diagram>
  <diagram id="DdyWMROJKGRnhz3MoxVX" name="2.3.9 已知与未知">
    <mxGraphModel dx="861" dy="666" grid="1" gridSize="10" guides="1" tooltips="1" connect="1" arrows="1" fold="1" page="1" pageScale="1" pageWidth="850" pageHeight="1100" math="0" shadow="0">
      <root>
        <mxCell id="0" />
        <mxCell id="1" parent="0" />
        <mxCell id="ALnUsE_ya8FiqRaOuuU4-1" value="已知的" style="ellipse;whiteSpace=wrap;html=1;aspect=fixed;fontSize=15;" vertex="1" parent="1">
          <mxGeometry x="340" y="320" width="120" height="120" as="geometry" />
        </mxCell>
        <mxCell id="ALnUsE_ya8FiqRaOuuU4-2" value="未知的" style="ellipse;whiteSpace=wrap;html=1;aspect=fixed;fontSize=15;" vertex="1" parent="1">
          <mxGeometry x="350" y="720" width="120" height="120" as="geometry" />
        </mxCell>
        <mxCell id="ALnUsE_ya8FiqRaOuuU4-3" value="" style="shape=flexArrow;endArrow=classic;html=1;rounded=0;width=38;endSize=13;" edge="1" parent="1">
          <mxGeometry width="50" height="50" relative="1" as="geometry">
            <mxPoint x="470" y="430" as="sourcePoint" />
            <mxPoint x="450" y="720" as="targetPoint" />
            <Array as="points">
              <mxPoint x="570" y="560" />
            </Array>
          </mxGeometry>
        </mxCell>
        <mxCell id="ALnUsE_ya8FiqRaOuuU4-6" value="&lt;font style=&quot;font-size: 14px;&quot;&gt;意识&lt;/font&gt;" style="edgeLabel;html=1;align=center;verticalAlign=middle;resizable=0;points=[];" vertex="1" connectable="0" parent="ALnUsE_ya8FiqRaOuuU4-3">
          <mxGeometry x="-0.1147" y="-11" relative="1" as="geometry">
            <mxPoint x="1" y="-4" as="offset" />
          </mxGeometry>
        </mxCell>
        <mxCell id="ALnUsE_ya8FiqRaOuuU4-7" value="已知的未知" style="ellipse;whiteSpace=wrap;html=1;aspect=fixed;fontSize=15;" vertex="1" parent="1">
          <mxGeometry x="140" y="510" width="120" height="120" as="geometry" />
        </mxCell>
        <mxCell id="ALnUsE_ya8FiqRaOuuU4-9" value="" style="shape=flexArrow;endArrow=classic;html=1;rounded=0;endWidth=34;endSize=12.63;width=38;" edge="1" parent="1">
          <mxGeometry width="50" height="50" relative="1" as="geometry">
            <mxPoint x="350" y="720" as="sourcePoint" />
            <mxPoint x="250" y="620" as="targetPoint" />
          </mxGeometry>
        </mxCell>
        <mxCell id="ALnUsE_ya8FiqRaOuuU4-10" value="探索" style="edgeLabel;html=1;align=center;verticalAlign=middle;resizable=0;points=[];fontSize=14;" vertex="1" connectable="0" parent="ALnUsE_ya8FiqRaOuuU4-9">
          <mxGeometry x="-0.4231" y="2" relative="1" as="geometry">
            <mxPoint x="-11" y="-14" as="offset" />
          </mxGeometry>
        </mxCell>
        <mxCell id="ALnUsE_ya8FiqRaOuuU4-11" value="" style="shape=flexArrow;endArrow=classic;html=1;rounded=0;endWidth=34;endSize=12.63;width=38;" edge="1" parent="1">
          <mxGeometry width="50" height="50" relative="1" as="geometry">
            <mxPoint x="240" y="500" as="sourcePoint" />
            <mxPoint x="330" y="420" as="targetPoint" />
          </mxGeometry>
        </mxCell>
        <mxCell id="ALnUsE_ya8FiqRaOuuU4-12" value="&lt;font style=&quot;font-size: 14px;&quot;&gt;探究&lt;/font&gt;" style="edgeLabel;html=1;align=center;verticalAlign=middle;resizable=0;points=[];" vertex="1" connectable="0" parent="ALnUsE_ya8FiqRaOuuU4-11">
          <mxGeometry x="-0.4231" y="2" relative="1" as="geometry">
            <mxPoint x="15" y="-8" as="offset" />
          </mxGeometry>
        </mxCell>
      </root>
    </mxGraphModel>
  </diagram>
  <diagram id="aM8A35SCKcHgGr6HOP51" name="2.3.12 饱和度">
    <mxGraphModel dx="645" dy="372" grid="1" gridSize="10" guides="1" tooltips="1" connect="1" arrows="1" fold="1" page="1" pageScale="1" pageWidth="850" pageHeight="1100" math="0" shadow="0">
      <root>
        <mxCell id="0" />
        <mxCell id="1" parent="0" />
        <mxCell id="AKqfgtJXLRXP8FU1f_ae-1" value="" style="endArrow=classic;html=1;rounded=0;" edge="1" parent="1" source="AKqfgtJXLRXP8FU1f_ae-5">
          <mxGeometry width="50" height="50" relative="1" as="geometry">
            <mxPoint x="100" y="280" as="sourcePoint" />
            <mxPoint x="320" y="280" as="targetPoint" />
          </mxGeometry>
        </mxCell>
        <mxCell id="AKqfgtJXLRXP8FU1f_ae-14" value="负载" style="edgeLabel;html=1;align=center;verticalAlign=middle;resizable=0;points=[];" vertex="1" connectable="0" parent="AKqfgtJXLRXP8FU1f_ae-1">
          <mxGeometry x="-0.0537" y="-1" relative="1" as="geometry">
            <mxPoint y="12" as="offset" />
          </mxGeometry>
        </mxCell>
        <mxCell id="AKqfgtJXLRXP8FU1f_ae-2" value="" style="endArrow=none;html=1;rounded=0;" edge="1" parent="1">
          <mxGeometry width="50" height="50" relative="1" as="geometry">
            <mxPoint x="120" y="280" as="sourcePoint" />
            <mxPoint x="120" y="120" as="targetPoint" />
          </mxGeometry>
        </mxCell>
        <mxCell id="AKqfgtJXLRXP8FU1f_ae-15" value="&lt;font style=&quot;font-size: 12px;&quot;&gt;使用率&lt;br style=&quot;border-color: var(--border-color); background-color: rgb(251, 251, 251);&quot;&gt;&lt;span style=&quot;background-color: rgb(251, 251, 251);&quot;&gt;（基于容量）&lt;/span&gt;&lt;/font&gt;" style="edgeLabel;html=1;align=center;verticalAlign=middle;resizable=0;points=[];" vertex="1" connectable="0" parent="AKqfgtJXLRXP8FU1f_ae-2">
          <mxGeometry x="-0.2667" y="1" relative="1" as="geometry">
            <mxPoint x="-41" as="offset" />
          </mxGeometry>
        </mxCell>
        <mxCell id="AKqfgtJXLRXP8FU1f_ae-3" value="" style="endArrow=none;html=1;rounded=0;" edge="1" parent="1">
          <mxGeometry width="50" height="50" relative="1" as="geometry">
            <mxPoint x="120" y="280" as="sourcePoint" />
            <mxPoint x="280" y="120" as="targetPoint" />
          </mxGeometry>
        </mxCell>
        <mxCell id="AKqfgtJXLRXP8FU1f_ae-5" value="0%" style="text;html=1;strokeColor=none;fillColor=none;align=center;verticalAlign=middle;whiteSpace=wrap;rounded=0;" vertex="1" parent="1">
          <mxGeometry x="90" y="268" width="25" height="25" as="geometry" />
        </mxCell>
        <mxCell id="AKqfgtJXLRXP8FU1f_ae-6" value="100%" style="text;html=1;strokeColor=none;fillColor=none;align=center;verticalAlign=middle;whiteSpace=wrap;rounded=0;" vertex="1" parent="1">
          <mxGeometry x="78" y="170" width="30" height="20" as="geometry" />
        </mxCell>
        <mxCell id="AKqfgtJXLRXP8FU1f_ae-11" value="" style="endArrow=none;html=1;rounded=0;dashed=1;" edge="1" parent="1">
          <mxGeometry width="50" height="50" relative="1" as="geometry">
            <mxPoint x="110" y="181" as="sourcePoint" />
            <mxPoint x="320" y="181" as="targetPoint" />
          </mxGeometry>
        </mxCell>
        <mxCell id="AKqfgtJXLRXP8FU1f_ae-13" value="" style="endArrow=none;html=1;rounded=0;" edge="1" parent="1">
          <mxGeometry width="50" height="50" relative="1" as="geometry">
            <mxPoint x="280" y="280" as="sourcePoint" />
            <mxPoint x="280" y="120" as="targetPoint" />
          </mxGeometry>
        </mxCell>
        <mxCell id="AKqfgtJXLRXP8FU1f_ae-17" value="" style="verticalLabelPosition=bottom;verticalAlign=top;html=1;shape=mxgraph.basic.acute_triangle;dx=1;gradientColor=default;gradientDirection=north;" vertex="1" parent="1">
          <mxGeometry x="220" y="120" width="60" height="60" as="geometry" />
        </mxCell>
        <mxCell id="AKqfgtJXLRXP8FU1f_ae-18" value="饱和度" style="text;html=1;strokeColor=none;fillColor=none;align=center;verticalAlign=middle;whiteSpace=wrap;rounded=0;" vertex="1" parent="1">
          <mxGeometry x="280" y="160" width="40" height="20" as="geometry" />
        </mxCell>
        <mxCell id="AKqfgtJXLRXP8FU1f_ae-19" value="" style="endArrow=classic;html=1;rounded=0;exitX=0.5;exitY=0;exitDx=0;exitDy=0;" edge="1" parent="1" source="AKqfgtJXLRXP8FU1f_ae-18">
          <mxGeometry width="50" height="50" relative="1" as="geometry">
            <mxPoint x="340" y="240" as="sourcePoint" />
            <mxPoint x="300" y="120" as="targetPoint" />
          </mxGeometry>
        </mxCell>
        <mxCell id="AKqfgtJXLRXP8FU1f_ae-20" value="" style="endArrow=classic;html=1;rounded=0;" edge="1" parent="1">
          <mxGeometry width="50" height="50" relative="1" as="geometry">
            <mxPoint x="440" y="280" as="sourcePoint" />
            <mxPoint x="560" y="280" as="targetPoint" />
          </mxGeometry>
        </mxCell>
        <mxCell id="AKqfgtJXLRXP8FU1f_ae-21" value="饱和度" style="edgeLabel;html=1;align=center;verticalAlign=middle;resizable=0;points=[];" vertex="1" connectable="0" parent="AKqfgtJXLRXP8FU1f_ae-20">
          <mxGeometry x="-0.0537" y="-1" relative="1" as="geometry">
            <mxPoint y="12" as="offset" />
          </mxGeometry>
        </mxCell>
        <mxCell id="AKqfgtJXLRXP8FU1f_ae-22" value="" style="endArrow=classic;html=1;rounded=0;endFill=1;" edge="1" parent="1">
          <mxGeometry width="50" height="50" relative="1" as="geometry">
            <mxPoint x="440" y="280" as="sourcePoint" />
            <mxPoint x="440" y="160" as="targetPoint" />
          </mxGeometry>
        </mxCell>
        <mxCell id="AKqfgtJXLRXP8FU1f_ae-23" value="&lt;span style=&quot;font-size: 12px;&quot;&gt;排队时间&lt;/span&gt;" style="edgeLabel;html=1;align=center;verticalAlign=middle;resizable=0;points=[];" vertex="1" connectable="0" parent="AKqfgtJXLRXP8FU1f_ae-22">
          <mxGeometry x="-0.2667" y="1" relative="1" as="geometry">
            <mxPoint x="-29" y="-6" as="offset" />
          </mxGeometry>
        </mxCell>
        <mxCell id="AKqfgtJXLRXP8FU1f_ae-24" value="" style="endArrow=classic;html=1;rounded=0;endFill=1;" edge="1" parent="1">
          <mxGeometry width="50" height="50" relative="1" as="geometry">
            <mxPoint x="440" y="280" as="sourcePoint" />
            <mxPoint x="550" y="170" as="targetPoint" />
          </mxGeometry>
        </mxCell>
        <mxCell id="AKqfgtJXLRXP8FU1f_ae-26" value="延时" style="edgeLabel;html=1;align=center;verticalAlign=middle;resizable=0;points=[];" vertex="1" connectable="0" parent="AKqfgtJXLRXP8FU1f_ae-24">
          <mxGeometry x="0.1512" y="-1" relative="1" as="geometry">
            <mxPoint x="1" as="offset" />
          </mxGeometry>
        </mxCell>
      </root>
    </mxGraphModel>
  </diagram>
  <diagram id="I9B4EbaH38vXNy05rsu_" name="2.3.14 缓存">
    <mxGraphModel dx="645" dy="372" grid="1" gridSize="10" guides="1" tooltips="1" connect="1" arrows="1" fold="1" page="1" pageScale="1" pageWidth="850" pageHeight="1100" math="0" shadow="0">
      <root>
        <mxCell id="0" />
        <mxCell id="1" parent="0" />
        <mxCell id="hBdaH5Zhe-8s67FcObqF-1" value="" style="endArrow=classic;html=1;rounded=0;" edge="1" parent="1">
          <mxGeometry width="50" height="50" relative="1" as="geometry">
            <mxPoint x="120" y="280" as="sourcePoint" />
            <mxPoint x="120" y="160" as="targetPoint" />
          </mxGeometry>
        </mxCell>
        <mxCell id="hBdaH5Zhe-8s67FcObqF-8" value="性能" style="edgeLabel;html=1;align=center;verticalAlign=middle;resizable=0;points=[];" vertex="1" connectable="0" parent="hBdaH5Zhe-8s67FcObqF-1">
          <mxGeometry x="-0.0667" y="-1" relative="1" as="geometry">
            <mxPoint x="-21" as="offset" />
          </mxGeometry>
        </mxCell>
        <mxCell id="hBdaH5Zhe-8s67FcObqF-3" value="" style="endArrow=none;html=1;rounded=0;" edge="1" parent="1">
          <mxGeometry width="50" height="50" relative="1" as="geometry">
            <mxPoint x="120" y="280" as="sourcePoint" />
            <mxPoint x="260" y="280" as="targetPoint" />
          </mxGeometry>
        </mxCell>
        <mxCell id="hBdaH5Zhe-8s67FcObqF-9" value="缓存命中率" style="edgeLabel;html=1;align=center;verticalAlign=middle;resizable=0;points=[];" vertex="1" connectable="0" parent="hBdaH5Zhe-8s67FcObqF-3">
          <mxGeometry x="-0.0571" y="-3" relative="1" as="geometry">
            <mxPoint x="-6" y="7" as="offset" />
          </mxGeometry>
        </mxCell>
        <mxCell id="hBdaH5Zhe-8s67FcObqF-4" value="" style="endArrow=none;dashed=1;html=1;dashPattern=1 3;strokeWidth=2;rounded=0;" edge="1" parent="1">
          <mxGeometry width="50" height="50" relative="1" as="geometry">
            <mxPoint x="240" y="270" as="sourcePoint" />
            <mxPoint x="240" y="160" as="targetPoint" />
          </mxGeometry>
        </mxCell>
        <mxCell id="hBdaH5Zhe-8s67FcObqF-5" value="" style="endArrow=none;html=1;curved=1;" edge="1" parent="1">
          <mxGeometry width="50" height="50" relative="1" as="geometry">
            <mxPoint x="120" y="260" as="sourcePoint" />
            <mxPoint x="230" y="160" as="targetPoint" />
            <Array as="points">
              <mxPoint x="230" y="250" />
            </Array>
          </mxGeometry>
        </mxCell>
        <mxCell id="hBdaH5Zhe-8s67FcObqF-6" value="0%" style="text;html=1;strokeColor=none;fillColor=none;align=center;verticalAlign=middle;whiteSpace=wrap;rounded=0;" vertex="1" parent="1">
          <mxGeometry x="110" y="280" width="30" height="20" as="geometry" />
        </mxCell>
        <mxCell id="hBdaH5Zhe-8s67FcObqF-7" value="100%" style="text;html=1;strokeColor=none;fillColor=none;align=center;verticalAlign=middle;whiteSpace=wrap;rounded=0;" vertex="1" parent="1">
          <mxGeometry x="220" y="280" width="30" height="20" as="geometry" />
        </mxCell>
        <mxCell id="hBdaH5Zhe-8s67FcObqF-10" value="" style="endArrow=classic;html=1;rounded=0;" edge="1" parent="1">
          <mxGeometry width="50" height="50" relative="1" as="geometry">
            <mxPoint x="400" y="280" as="sourcePoint" />
            <mxPoint x="400" y="160" as="targetPoint" />
          </mxGeometry>
        </mxCell>
        <mxCell id="hBdaH5Zhe-8s67FcObqF-11" value="性能（坏）" style="edgeLabel;html=1;align=center;verticalAlign=middle;resizable=0;points=[];" vertex="1" connectable="0" parent="hBdaH5Zhe-8s67FcObqF-10">
          <mxGeometry x="-0.0667" y="-1" relative="1" as="geometry">
            <mxPoint x="-31" as="offset" />
          </mxGeometry>
        </mxCell>
        <mxCell id="hBdaH5Zhe-8s67FcObqF-12" value="" style="endArrow=none;html=1;rounded=0;" edge="1" parent="1">
          <mxGeometry width="50" height="50" relative="1" as="geometry">
            <mxPoint x="400" y="280" as="sourcePoint" />
            <mxPoint x="540" y="280" as="targetPoint" />
          </mxGeometry>
        </mxCell>
        <mxCell id="hBdaH5Zhe-8s67FcObqF-13" value="缓存失效率" style="edgeLabel;html=1;align=center;verticalAlign=middle;resizable=0;points=[];" vertex="1" connectable="0" parent="hBdaH5Zhe-8s67FcObqF-12">
          <mxGeometry x="-0.0571" y="-3" relative="1" as="geometry">
            <mxPoint x="-6" y="7" as="offset" />
          </mxGeometry>
        </mxCell>
        <mxCell id="hBdaH5Zhe-8s67FcObqF-15" value="" style="endArrow=none;html=1;exitX=0.25;exitY=0;exitDx=0;exitDy=0;strokeColor=default;rounded=0;" edge="1" parent="1">
          <mxGeometry width="50" height="50" relative="1" as="geometry">
            <mxPoint x="400.5" y="280" as="sourcePoint" />
            <mxPoint x="513" y="170" as="targetPoint" />
            <Array as="points">
              <mxPoint x="463" y="220" />
            </Array>
          </mxGeometry>
        </mxCell>
        <mxCell id="hBdaH5Zhe-8s67FcObqF-16" value="0%" style="text;html=1;strokeColor=none;fillColor=none;align=center;verticalAlign=middle;whiteSpace=wrap;rounded=0;" vertex="1" parent="1">
          <mxGeometry x="390" y="280" width="30" height="20" as="geometry" />
        </mxCell>
        <mxCell id="hBdaH5Zhe-8s67FcObqF-18" value="" style="endArrow=none;html=1;rounded=0;" edge="1" parent="1">
          <mxGeometry width="50" height="50" relative="1" as="geometry">
            <mxPoint x="120" y="480" as="sourcePoint" />
            <mxPoint x="260" y="480" as="targetPoint" />
          </mxGeometry>
        </mxCell>
        <mxCell id="hBdaH5Zhe-8s67FcObqF-19" value="缓存命中率" style="edgeLabel;html=1;align=center;verticalAlign=middle;resizable=0;points=[];" vertex="1" connectable="0" parent="hBdaH5Zhe-8s67FcObqF-18">
          <mxGeometry x="-0.0571" y="-3" relative="1" as="geometry">
            <mxPoint x="-6" y="7" as="offset" />
          </mxGeometry>
        </mxCell>
        <mxCell id="hBdaH5Zhe-8s67FcObqF-20" value="0%" style="text;html=1;strokeColor=none;fillColor=none;align=center;verticalAlign=middle;whiteSpace=wrap;rounded=0;" vertex="1" parent="1">
          <mxGeometry x="90" y="480" width="30" height="20" as="geometry" />
        </mxCell>
        <mxCell id="hBdaH5Zhe-8s67FcObqF-21" value="100%" style="text;html=1;strokeColor=none;fillColor=none;align=center;verticalAlign=middle;whiteSpace=wrap;rounded=0;" vertex="1" parent="1">
          <mxGeometry x="240" y="480" width="30" height="20" as="geometry" />
        </mxCell>
        <mxCell id="hBdaH5Zhe-8s67FcObqF-22" value="" style="shape=flexArrow;endArrow=classic;html=1;rounded=0;" edge="1" parent="1">
          <mxGeometry width="50" height="50" relative="1" as="geometry">
            <mxPoint x="120" y="460" as="sourcePoint" />
            <mxPoint x="270" y="460" as="targetPoint" />
          </mxGeometry>
        </mxCell>
        <mxCell id="hBdaH5Zhe-8s67FcObqF-23" value="冷" style="text;html=1;strokeColor=none;fillColor=none;align=center;verticalAlign=middle;whiteSpace=wrap;rounded=0;" vertex="1" parent="1">
          <mxGeometry x="100" y="420" width="20" height="30" as="geometry" />
        </mxCell>
        <mxCell id="hBdaH5Zhe-8s67FcObqF-24" value="热" style="text;html=1;strokeColor=none;fillColor=none;align=center;verticalAlign=middle;whiteSpace=wrap;rounded=0;" vertex="1" parent="1">
          <mxGeometry x="240" y="420" width="20" height="30" as="geometry" />
        </mxCell>
        <mxCell id="hBdaH5Zhe-8s67FcObqF-25" value="" style="endArrow=none;dashed=1;html=1;dashPattern=1 3;strokeWidth=2;rounded=0;" edge="1" parent="1">
          <mxGeometry width="50" height="50" relative="1" as="geometry">
            <mxPoint x="120" y="510" as="sourcePoint" />
            <mxPoint x="120" y="400" as="targetPoint" />
          </mxGeometry>
        </mxCell>
        <mxCell id="hBdaH5Zhe-8s67FcObqF-26" value="" style="endArrow=none;dashed=1;html=1;dashPattern=1 3;strokeWidth=2;rounded=0;" edge="1" parent="1">
          <mxGeometry width="50" height="50" relative="1" as="geometry">
            <mxPoint x="240" y="510" as="sourcePoint" />
            <mxPoint x="240" y="400" as="targetPoint" />
          </mxGeometry>
        </mxCell>
        <mxCell id="hBdaH5Zhe-8s67FcObqF-27" value="" style="endArrow=none;dashed=1;html=1;dashPattern=1 3;strokeWidth=2;rounded=0;" edge="1" parent="1">
          <mxGeometry width="50" height="50" relative="1" as="geometry">
            <mxPoint x="139" y="510" as="sourcePoint" />
            <mxPoint x="139" y="400" as="targetPoint" />
          </mxGeometry>
        </mxCell>
        <mxCell id="hBdaH5Zhe-8s67FcObqF-28" value="温" style="text;html=1;strokeColor=none;fillColor=none;align=center;verticalAlign=middle;whiteSpace=wrap;rounded=0;" vertex="1" parent="1">
          <mxGeometry x="140" y="420" width="20" height="30" as="geometry" />
        </mxCell>
      </root>
    </mxGraphModel>
  </diagram>
  <diagram id="HqugAz6B1nRFxuS8ImF1" name="2.4.2 工作负载分析">
    <mxGraphModel dx="645" dy="372" grid="1" gridSize="10" guides="1" tooltips="1" connect="1" arrows="1" fold="1" page="1" pageScale="1" pageWidth="850" pageHeight="1100" math="0" shadow="0">
      <root>
        <mxCell id="0" />
        <mxCell id="1" parent="0" />
        <mxCell id="kOmwdC3nQJMf9CEdwGo7-1" value="" style="endArrow=classic;html=1;rounded=0;" edge="1" parent="1">
          <mxGeometry width="50" height="50" relative="1" as="geometry">
            <mxPoint x="80" y="200" as="sourcePoint" />
            <mxPoint x="240" y="200" as="targetPoint" />
          </mxGeometry>
        </mxCell>
        <mxCell id="kOmwdC3nQJMf9CEdwGo7-2" value="应用程序" style="whiteSpace=wrap;html=1;aspect=fixed;" vertex="1" parent="1">
          <mxGeometry x="250" y="200" width="80" height="80" as="geometry" />
        </mxCell>
        <mxCell id="kOmwdC3nQJMf9CEdwGo7-3" value="" style="endArrow=classic;html=1;rounded=0;" edge="1" parent="1">
          <mxGeometry width="50" height="50" relative="1" as="geometry">
            <mxPoint x="240" y="280" as="sourcePoint" />
            <mxPoint x="80" y="280" as="targetPoint" />
          </mxGeometry>
        </mxCell>
        <mxCell id="kOmwdC3nQJMf9CEdwGo7-4" value="" style="endArrow=classic;startArrow=classic;html=1;rounded=0;" edge="1" parent="1">
          <mxGeometry width="50" height="50" relative="1" as="geometry">
            <mxPoint x="200" y="280" as="sourcePoint" />
            <mxPoint x="200" y="200" as="targetPoint" />
          </mxGeometry>
        </mxCell>
        <mxCell id="kOmwdC3nQJMf9CEdwGo7-5" value="1.输入" style="text;html=1;strokeColor=none;fillColor=none;align=center;verticalAlign=middle;whiteSpace=wrap;rounded=0;" vertex="1" parent="1">
          <mxGeometry x="20" y="190" width="60" height="30" as="geometry" />
        </mxCell>
        <mxCell id="kOmwdC3nQJMf9CEdwGo7-6" value="工作负载" style="text;html=1;strokeColor=none;fillColor=none;align=center;verticalAlign=middle;whiteSpace=wrap;rounded=0;" vertex="1" parent="1">
          <mxGeometry x="80" y="160" width="60" height="30" as="geometry" />
        </mxCell>
        <mxCell id="kOmwdC3nQJMf9CEdwGo7-7" value="2.延时" style="text;html=1;strokeColor=none;fillColor=none;align=center;verticalAlign=middle;whiteSpace=wrap;rounded=0;" vertex="1" parent="1">
          <mxGeometry x="140" y="225" width="60" height="30" as="geometry" />
        </mxCell>
        <mxCell id="kOmwdC3nQJMf9CEdwGo7-8" value="3.完成" style="text;html=1;strokeColor=none;fillColor=none;align=center;verticalAlign=middle;whiteSpace=wrap;rounded=0;" vertex="1" parent="1">
          <mxGeometry x="20" y="280" width="60" height="30" as="geometry" />
        </mxCell>
      </root>
    </mxGraphModel>
  </diagram>
  <diagram id="EpRfhBV9Qbw7j-xH1H9T" name="2.5.10 工作负载特征归纳">
    <mxGraphModel dx="2044" dy="1174" grid="1" gridSize="10" guides="1" tooltips="1" connect="1" arrows="1" fold="1" page="1" pageScale="1" pageWidth="827" pageHeight="1169" math="0" shadow="0">
      <root>
        <mxCell id="0" />
        <mxCell id="1" parent="0" />
        <mxCell id="ZaPaYUVeWNKGcHykoKt0-11" style="rounded=0;orthogonalLoop=1;jettySize=auto;html=1;exitX=0;exitY=0;exitDx=0;exitDy=0;entryX=1;entryY=1;entryDx=0;entryDy=0;" edge="1" parent="1" source="ZaPaYUVeWNKGcHykoKt0-1" target="ZaPaYUVeWNKGcHykoKt0-2">
          <mxGeometry relative="1" as="geometry" />
        </mxCell>
        <mxCell id="ZaPaYUVeWNKGcHykoKt0-12" style="rounded=0;orthogonalLoop=1;jettySize=auto;html=1;exitX=1;exitY=0;exitDx=0;exitDy=0;entryX=0;entryY=1;entryDx=0;entryDy=0;" edge="1" parent="1" source="ZaPaYUVeWNKGcHykoKt0-1" target="ZaPaYUVeWNKGcHykoKt0-4">
          <mxGeometry relative="1" as="geometry" />
        </mxCell>
        <mxCell id="ZaPaYUVeWNKGcHykoKt0-13" style="rounded=0;orthogonalLoop=1;jettySize=auto;html=1;exitX=1;exitY=1;exitDx=0;exitDy=0;entryX=0;entryY=0;entryDx=0;entryDy=0;" edge="1" parent="1" source="ZaPaYUVeWNKGcHykoKt0-1" target="ZaPaYUVeWNKGcHykoKt0-8">
          <mxGeometry relative="1" as="geometry" />
        </mxCell>
        <mxCell id="ZaPaYUVeWNKGcHykoKt0-14" style="rounded=0;orthogonalLoop=1;jettySize=auto;html=1;exitX=0;exitY=1;exitDx=0;exitDy=0;entryX=1;entryY=0;entryDx=0;entryDy=0;" edge="1" parent="1" source="ZaPaYUVeWNKGcHykoKt0-1" target="ZaPaYUVeWNKGcHykoKt0-9">
          <mxGeometry relative="1" as="geometry" />
        </mxCell>
        <mxCell id="ZaPaYUVeWNKGcHykoKt0-1" value="负载" style="ellipse;whiteSpace=wrap;html=1;aspect=fixed;" vertex="1" parent="1">
          <mxGeometry x="340" y="400" width="80" height="80" as="geometry" />
        </mxCell>
        <mxCell id="ZaPaYUVeWNKGcHykoKt0-2" value="&lt;b&gt;谁&lt;/b&gt;产生的？" style="ellipse;whiteSpace=wrap;html=1;aspect=fixed;" vertex="1" parent="1">
          <mxGeometry x="240" y="320" width="80" height="80" as="geometry" />
        </mxCell>
        <mxCell id="ZaPaYUVeWNKGcHykoKt0-3" value="&lt;span style=&quot;color: rgb(0, 0, 0); font-family: Helvetica; font-size: 12px; font-style: normal; font-variant-ligatures: normal; font-variant-caps: normal; font-weight: 400; letter-spacing: normal; orphans: 2; text-align: center; text-indent: 0px; text-transform: none; widows: 2; word-spacing: 0px; -webkit-text-stroke-width: 0px; background-color: rgb(251, 251, 251); text-decoration-thickness: initial; text-decoration-style: initial; text-decoration-color: initial; float: none; display: inline !important;&quot;&gt;谁：进程ID、用户ID、远程端口IP地址：&lt;/span&gt;" style="text;whiteSpace=wrap;html=1;" vertex="1" parent="1">
          <mxGeometry x="40" y="320" width="200" height="40" as="geometry" />
        </mxCell>
        <mxCell id="ZaPaYUVeWNKGcHykoKt0-4" value="&lt;b&gt;为什么&lt;/b&gt;会被调用?" style="ellipse;whiteSpace=wrap;html=1;aspect=fixed;" vertex="1" parent="1">
          <mxGeometry x="440" y="320" width="80" height="80" as="geometry" />
        </mxCell>
        <mxCell id="ZaPaYUVeWNKGcHykoKt0-6" value="&lt;div style=&quot;text-align: center;&quot;&gt;&lt;span style=&quot;background-color: initial;&quot;&gt;代码路径、堆栈跟踪？&lt;/span&gt;&lt;/div&gt;" style="text;whiteSpace=wrap;html=1;" vertex="1" parent="1">
          <mxGeometry x="520" y="320" width="160" height="40" as="geometry" />
        </mxCell>
        <mxCell id="ZaPaYUVeWNKGcHykoKt0-7" value="&lt;div style=&quot;text-align: center;&quot;&gt;IOPS、吞吐量、方向类型（读取/写入)?包含变动（标准方差），如果有的话？&lt;/div&gt;" style="text;whiteSpace=wrap;html=1;" vertex="1" parent="1">
          <mxGeometry x="520" y="480" width="240" height="40" as="geometry" />
        </mxCell>
        <mxCell id="ZaPaYUVeWNKGcHykoKt0-8" value="特征是&lt;b&gt;什么？&lt;/b&gt;" style="ellipse;whiteSpace=wrap;html=1;aspect=fixed;" vertex="1" parent="1">
          <mxGeometry x="440" y="480" width="80" height="80" as="geometry" />
        </mxCell>
        <mxCell id="ZaPaYUVeWNKGcHykoKt0-9" value="&lt;b&gt;怎样&lt;/b&gt;变化&lt;b&gt;？&lt;/b&gt;" style="ellipse;whiteSpace=wrap;html=1;aspect=fixed;" vertex="1" parent="1">
          <mxGeometry x="240" y="480" width="80" height="80" as="geometry" />
        </mxCell>
        <mxCell id="ZaPaYUVeWNKGcHykoKt0-10" value="&lt;div style=&quot;text-align: center;&quot;&gt;怎么随时间变化？有日常模式吗？有规律吗？&lt;/div&gt;" style="text;whiteSpace=wrap;html=1;" vertex="1" parent="1">
          <mxGeometry x="40" y="480" width="200" height="40" as="geometry" />
        </mxCell>
      </root>
    </mxGraphModel>
  </diagram>
</mxfile>
